<?xml version="1.0" encoding="iso-8859-1"?>
<!-- Uploaded to: SVG Repo, www.svgrepo.com, Generator: SVG Repo Mixer Tools -->
<svg height="800px" width="800px" version="1.1" id="Layer_1" xmlns="http://www.w3.org/2000/svg" xmlns:xlink="http://www.w3.org/1999/xlink" 
	 viewBox="0 0 512 512" xml:space="preserve">
<path style="fill:#E0E0E2;" d="M256.001,0L256.001,0C151.497,0,66.783,84.715,66.783,189.216v133.566
	C66.783,427.285,151.497,512,256,512h0.001c104.501,0,189.216-84.715,189.216-189.217V189.216C445.217,84.715,360.503,0,256.001,0z"
	/>
<path style="fill:#C6C5CA;" d="M256.001,512c104.501,0,189.216-84.715,189.216-189.217V189.216C445.217,84.715,360.503,0,256.001,0
	H256L256.001,512L256.001,512z"/>
<g>
	<path style="fill:#5D5D5D;" d="M233.739,250.435c0-27.619-22.468-50.087-50.087-50.087s-50.087,22.468-50.087,50.087
		s22.468,50.087,50.087,50.087S233.739,278.054,233.739,250.435z"/>
	<path style="fill:#5D5D5D;" d="M328.348,200.348c-27.619,0-50.087,22.468-50.087,50.087s22.468,50.087,50.087,50.087
		s50.087-22.468,50.087-50.087S355.967,200.348,328.348,200.348z"/>
	<circle style="fill:#5D5D5D;" cx="217.043" cy="350.609" r="16.696"/>
	<circle style="fill:#5D5D5D;" cx="217.043" cy="417.391" r="16.696"/>
	<circle style="fill:#5D5D5D;" cx="294.957" cy="350.609" r="16.696"/>
	<circle style="fill:#5D5D5D;" cx="199.235" cy="94.609" r="16.696"/>
	<circle style="fill:#5D5D5D;" cx="299.409" cy="94.609" r="16.696"/>
	<circle style="fill:#5D5D5D;" cx="294.957" cy="417.391" r="16.696"/>
</g>
<g>
	<path style="fill:#806749;" d="M83.478,333.913H16.696C7.473,333.913,0,326.435,0,317.217V217.043
		c0-9.217,7.473-16.696,16.696-16.696h66.783c9.223,0,16.696,7.479,16.696,16.696v100.174
		C100.174,326.435,92.701,333.913,83.478,333.913z"/>
	<path style="fill:#806749;" d="M495.304,333.913h-66.783c-9.223,0-16.696-7.479-16.696-16.696V217.043
		c0-9.217,7.473-16.696,16.696-16.696h66.783c9.223,0,16.696,7.479,16.696,16.696v100.174
		C512,326.435,504.527,333.913,495.304,333.913z"/>
</g>
<g>
	<path style="fill:#5F4D37;" d="M495.304,333.913c4.611,0,8.785-1.87,11.806-4.892c3.021-3.022,4.89-7.195,4.89-11.804V267.13
		v-50.087c0-4.609-1.868-8.783-4.89-11.804c-3.022-3.021-7.195-4.892-11.806-4.892h-33.391v133.565H495.304z"/>
	<path style="fill:#5F4D37;" d="M83.478,333.913c4.611,0,8.785-1.87,11.806-4.892s4.89-7.195,4.89-11.804V267.13v-50.087
		c0-4.609-1.868-8.783-4.89-11.804c-3.022-3.021-7.195-4.892-11.806-4.892H50.087v133.565H83.478z"/>
</g>
<path style="fill:#FF5023;" d="M299.674,151.565c-1.717-4.163-5.782-6.87-10.282-6.87h-66.783c-4.5,0-8.565,2.707-10.282,6.87
	c-1.729,4.163-0.771,8.946,2.413,12.13l33.391,33.391c2.174,2.174,5.022,3.261,7.869,3.261s5.695-1.087,7.869-3.261l33.391-33.391
	C300.446,160.511,301.402,155.728,299.674,151.565z"/>
<path style="fill:#CD2A00;" d="M289.391,144.696H256v55.652c2.848,0,5.695-1.087,7.869-3.261l33.391-33.391
	c3.184-3.184,4.142-7.967,2.413-12.13C297.956,147.403,293.891,144.696,289.391,144.696z"/>
</svg>